<?xml version="1.0" encoding="UTF-8"?>
<svg width="22px" height="24px" viewBox="0 0 22 24" version="1.1" xmlns="http://www.w3.org/2000/svg" xmlns:xlink="http://www.w3.org/1999/xlink">
    <!-- Generator: Sketch 50 (54983) - http://www.bohemiancoding.com/sketch -->
    <title>blocks</title>
    <desc>Created with Sketch.</desc>
    <defs></defs>
    <g id="Page-1" stroke="none" stroke-width="1" fill="none" fill-rule="evenodd">
        <g id="blocks">
            <path d="M12.8,20.4 L16.4,20.4 L16.4,19.6 L12.8,19.6 L12.8,16.8 L19.2,16.8 L19.2,23.2 L12.8,23.2 L12.8,20.4 Z M0.8,4 L7.2,4 L7.2,6.8 L3.6,6.8 L3.6,7.6 L7.2,7.6 L7.2,10.4 L0.8,10.4 L0.8,4 Z M21.5784,0.274 C21.5752,0.2644 21.57,0.256 21.566,0.2464 C21.558,0.2272 21.5512,0.2076 21.5404,0.1896 C21.5356,0.1816 21.5284,0.1756 21.5228,0.168 C21.5152,0.1572 21.5068,0.1472 21.498,0.1372 C21.4788,0.1156 21.4576,0.0964 21.4344,0.0796 C21.4252,0.0728 21.4168,0.0652 21.4068,0.0592 C21.3724,0.0384 21.3356,0.022 21.296,0.0124 C21.2948,0.012 21.2936,0.0112 21.2924,0.0108 C21.2868,0.0096 21.2812,0.0108 21.2756,0.0096 C21.2508,0.0048 21.2256,0 21.2,0 L14,0 C13.8484,0 13.71,0.0856 13.642,0.2212 L12.042,3.4212 C12.0396,3.426 12.0388,3.4312 12.0368,3.4364 C12.0328,3.4448 12.0308,3.454 12.0276,3.4628 C12.0132,3.5024 12.0048,3.5432 12.0028,3.5848 C12.0028,3.59 12,3.5944 12,3.6 L12,6.8 L9.6,6.8 L9.6,0.4 C9.6,0.3972 9.5988,0.3952 9.5988,0.3924 C9.598,0.352 9.5912,0.3124 9.5784,0.274 C9.5752,0.2644 9.57,0.256 9.566,0.2464 C9.558,0.2272 9.5512,0.2076 9.5404,0.1896 C9.5356,0.1816 9.5284,0.1756 9.5228,0.168 C9.5152,0.1572 9.5068,0.1472 9.498,0.1372 C9.4788,0.1156 9.4576,0.0964 9.4344,0.0796 C9.4252,0.0728 9.4168,0.0652 9.4068,0.0592 C9.3724,0.0384 9.3356,0.022 9.296,0.0124 C9.2948,0.012 9.2936,0.0112 9.2924,0.0108 C9.2868,0.0096 9.2812,0.0108 9.2756,0.0096 C9.2504,0.0048 9.2256,0 9.2,0 L2,0 C1.8484,0 1.71,0.0856 1.642,0.2212 L0.042,3.4212 C0.0396,3.426 0.0388,3.4312 0.0368,3.4364 C0.0328,3.4448 0.0308,3.454 0.0276,3.4628 C0.0132,3.5024 0.0048,3.5432 0.0028,3.5848 C0.0028,3.59 0,3.5944 0,3.6 L0,10.8 C0,11.0208 0.1792,11.2 0.4,11.2 L3.6,11.2 L3.6,12.8 L2,12.8 C1.8484,12.8 1.71,12.8856 1.642,13.0212 L0.042,16.2212 C0.0396,16.226 0.0388,16.2312 0.0368,16.2364 C0.0328,16.2448 0.0308,16.254 0.0276,16.2628 C0.0132,16.3024 0.0048,16.3432 0.0028,16.3848 C0.0028,16.39 0,16.3944 0,16.4 L0,23.6 C0,23.8208 0.1792,24 0.4,24 L7.6,24 C7.6,24 7.6,24 7.6,24 C7.6,24 7.6,24 7.6,24 C7.6484,24 7.6944,23.9884 7.7388,23.972 C7.752,23.9672 7.7636,23.9612 7.7756,23.9552 C7.8068,23.9396 7.8352,23.9204 7.862,23.8972 C7.8712,23.8892 7.8808,23.8824 7.8892,23.8736 C7.9196,23.8412 7.9464,23.8052 7.9652,23.7632 L7.968,23.7568 C7.968,23.7564 7.9684,23.7564 7.9684,23.756 L9.46,20.4 L12,20.4 L12,23.6 C12,23.8208 12.1792,24 12.4,24 L19.6,24 C19.6,24 19.6,24 19.6,24 C19.6,24 19.6,24 19.6,24 C19.6484,24 19.6944,23.9884 19.7388,23.972 C19.752,23.9672 19.7636,23.9612 19.7756,23.9552 C19.8068,23.9396 19.8352,23.9204 19.862,23.8972 C19.8712,23.8892 19.8808,23.8824 19.8892,23.8736 C19.9196,23.8412 19.9464,23.8052 19.9652,23.7632 L19.968,23.7568 C19.968,23.7564 19.9684,23.7564 19.9684,23.756 L21.5652,20.1632 C21.5884,20.1112 21.6,20.056 21.6,20 L21.6,13.2 C21.6,13.1972 21.5988,13.1952 21.5988,13.1924 C21.598,13.152 21.5912,13.1124 21.5784,13.074 C21.5752,13.0644 21.57,13.056 21.566,13.0464 C21.558,13.0272 21.5512,13.0076 21.5404,12.9896 C21.5356,12.9816 21.5284,12.9756 21.5228,12.968 C21.5152,12.9572 21.5068,12.9472 21.498,12.9372 C21.4788,12.9156 21.4576,12.8964 21.4344,12.8796 C21.4252,12.8728 21.4168,12.8652 21.4068,12.8592 C21.3724,12.8384 21.3356,12.822 21.296,12.8124 C21.2948,12.812 21.2936,12.8112 21.2924,12.8108 C21.2868,12.8096 21.2816,12.8108 21.276,12.8096 C21.2508,12.8048 21.226,12.8 21.2,12.8 L16.4,12.8 L16.4,11.2 L19.6,11.2 C19.6,11.2 19.6,11.2 19.6,11.2 C19.6,11.2 19.6,11.2 19.6,11.2 C19.6484,11.2 19.6944,11.1884 19.7388,11.172 C19.752,11.1672 19.7636,11.1612 19.7756,11.1552 C19.8068,11.1396 19.8352,11.1204 19.862,11.0972 C19.8712,11.0892 19.8808,11.0824 19.8892,11.0736 C19.9196,11.0412 19.9464,11.0052 19.9652,10.9632 L19.968,10.9568 C19.968,10.9564 19.9684,10.9564 19.9684,10.956 L21.5652,7.3632 C21.5884,7.3112 21.6,7.256 21.6,7.2 L21.6,0.4 C21.6,0.3972 21.5988,0.3952 21.5988,0.3924 C21.598,0.3524 21.5912,0.3124 21.5784,0.274 Z M14.2472,0.8 L20.5528,0.8 L19.3528,3.2 L13.0472,3.2 L14.2472,0.8 Z M8,7.6 L8.5844,7.6 L8,8.9152 L8,7.6 Z M8,6.8 L8,3.6944 L8.8,2.0944 L8.8,6.8 L8,6.8 Z M2.2472,0.8 L8.5528,0.8 L7.3528,3.2 L1.0472,3.2 L2.2472,0.8 Z M2.2472,13.6 L3.6,13.6 L3.6,16 L1.0472,16 L2.2472,13.6 Z M8.8,19.6 L8,19.6 L8,16.4944 L8.8,14.8944 L8.8,19.6 Z M7.3528,16 L4.4,16 L4.4,13.6 L8.5528,13.6 L7.3528,16 Z M8,21.7152 L8,20.4 L8.5844,20.4 L8,21.7152 Z M13.0472,16 L14.2472,13.6 L15.6,13.6 L15.6,16 L13.0472,16 Z M20,21.7152 L20,16.4944 L20.8,14.8944 L20.8,19.9148 L20,21.7152 Z M20.5528,13.6 L19.3528,16 L16.4,16 L16.4,13.6 L20.5528,13.6 Z M15.6,12.8 L14,12.8 C13.8484,12.8 13.71,12.8856 13.642,13.0212 L12.042,16.2212 C12.0396,16.226 12.0388,16.2312 12.0368,16.2364 C12.0328,16.2448 12.0308,16.254 12.0276,16.2628 C12.0132,16.3024 12.0048,16.3432 12.0028,16.3848 C12.0028,16.39 12,16.3944 12,16.4 L12,19.6 L9.6,19.6 L9.6,13.2 C9.6,13.1972 9.5988,13.1952 9.5988,13.1924 C9.598,13.152 9.5912,13.1124 9.5784,13.074 C9.5752,13.0644 9.57,13.056 9.566,13.0464 C9.558,13.0272 9.5512,13.0076 9.5404,12.9896 C9.5356,12.9816 9.5284,12.9756 9.5228,12.968 C9.5152,12.9572 9.5068,12.9472 9.498,12.9372 C9.4788,12.9156 9.4576,12.8964 9.4344,12.8796 C9.4252,12.8728 9.4168,12.8652 9.4068,12.8592 C9.3724,12.8384 9.3356,12.822 9.296,12.8124 C9.2948,12.812 9.2936,12.8112 9.2924,12.8108 C9.2868,12.8096 9.2816,12.8108 9.276,12.8096 C9.2508,12.8048 9.226,12.8 9.2,12.8 L4.4,12.8 L4.4,11.2 L7.6,11.2 C7.6,11.2 7.6,11.2 7.6,11.2 C7.6,11.2 7.6,11.2 7.6,11.2 C7.6484,11.2 7.6944,11.1884 7.7388,11.172 C7.752,11.1672 7.7636,11.1612 7.7756,11.1552 C7.8068,11.1396 7.8352,11.1204 7.862,11.0972 C7.8712,11.0892 7.8808,11.0824 7.8892,11.0736 C7.9196,11.0412 7.9464,11.0052 7.9652,10.9632 L7.968,10.9568 C7.968,10.9564 7.9684,10.9564 7.9684,10.956 L9.46,7.6 L12,7.6 L12,10.8 C12,11.0208 12.1792,11.2 12.4,11.2 L15.6,11.2 L15.6,12.8 Z M20,8.9152 L20,3.6944 L20.8,2.0944 L20.8,7.1148 L20,8.9152 Z" id="Shape" fill="#FFFFFF" fill-rule="nonzero"></path>
            <polygon id="Path" fill="#4CD566" points="0.8 16.8 3.6 16.8 3.6 20.4 4.4 20.4 4.4 16.8 7.2 16.8 7.2 23.2 0.8 23.2"></polygon>
            <polygon id="Path" fill="#4CD566" points="15.6 6.8 15.6 10.4 12.8 10.4 12.8 4 19.2 4 19.2 10.4 16.4 10.4 16.4 6.8"></polygon>
        </g>
    </g>
</svg>