<?xml version="1.0" encoding="UTF-8"?>
<svg width="26px" height="26px" viewBox="0 0 26 26" version="1.1" xmlns="http://www.w3.org/2000/svg" xmlns:xlink="http://www.w3.org/1999/xlink">
    <!-- Generator: Sketch 50 (54983) - http://www.bohemiancoding.com/sketch -->
    <title>exclamacao</title>
    <desc>Created with Sketch.</desc>
    <defs></defs>
    <g id="Page-1" stroke="none" stroke-width="1" fill="none" fill-rule="evenodd">
        <g id="exclamacao">
            <path d="M13,0.105805393 C5.82729727,0.105805393 0,5.86762742 0,12.959738 C0,20.0518369 5.82729727,25.8136706 13,25.8136706 C20.1727027,25.8136706 26,20.0518369 26,12.959738 C26,5.86762742 20.1727027,0.105805393 13,0.105805393 Z M13,1.27434472 C19.5339997,1.27434472 24.8181818,6.49915281 24.8181818,12.959738 C24.8181818,19.420329 19.5339997,24.6451312 13,24.6451312 C6.46600027,24.6451312 1.18181818,19.420329 1.18181818,12.959738 C1.18181818,6.49915281 6.46600027,1.27434472 13,1.27434472 Z" id="Shape" fill="#FFFFFF" fill-rule="nonzero"></path>
            <path d="M13,5.94850202 C10.7225474,5.94850202 8.86363636,7.78652966 8.86363636,10.0383897 C8.86062256,10.2490983 8.9725854,10.4450889 9.15665214,10.5513128 C9.34071887,10.6575368 9.56837203,10.6575368 9.75243877,10.5513128 C9.93650551,10.4450889 10.0484684,10.2490983 10.0454545,10.0383897 C10.0454545,8.41805506 11.3612498,7.11704135 13,7.11704135 C14.6387502,7.11704135 15.9545455,8.41805506 15.9545455,10.0383897 C15.9660741,11.3505775 15.253545,12.0570297 14.3757102,12.8775751 C13.936793,13.28782 13.4676333,13.7063908 13.0830966,14.2286987 C12.6985598,14.7509773 12.4090909,15.4020728 12.4090909,16.1732211 L12.4090909,16.465356 C12.4060771,16.6760646 12.5180399,16.8720552 12.7021067,16.9782791 C12.8861734,17.0845031 13.1138266,17.0845031 13.2978933,16.9782791 C13.4819601,16.8720552 13.5939229,16.6760646 13.5909091,16.465356 L13.5909091,16.1732211 C13.5909091,15.672502 13.7496367,15.299738 14.0340909,14.9133897 C14.3185451,14.5270413 14.7373894,14.1479964 15.1882102,13.7265919 C16.088179,12.8853604 17.1478175,11.7931384 17.1363636,10.0383897 C17.1363424,10.0351178 17.1363923,10.0325031 17.1363636,10.0292604 C17.1312608,7.7816218 15.2743208,5.94850202 13,5.94850202 Z" id="Path" fill="#4CD566"></path>
            <path d="M13,18.2181649 C12.5104747,18.2181649 12.1136364,18.6105312 12.1136364,19.0945694 C12.1136364,19.5785784 12.5104747,19.9709739 13,19.9709739 C13.4895253,19.9709739 13.8863636,19.5785784 13.8863636,19.0945694 C13.8863636,18.6105312 13.4895253,18.2181649 13,18.2181649 Z" id="Path" fill="#4CD566"></path>
        </g>
    </g>
</svg>