<?xml version="1.0" encoding="UTF-8"?>
<svg width="28px" height="28px" viewBox="0 0 28 28" version="1.1" xmlns="http://www.w3.org/2000/svg" xmlns:xlink="http://www.w3.org/1999/xlink">
    <!-- Generator: Sketch 50 (54983) - http://www.bohemiancoding.com/sketch -->
    <title>link</title>
    <desc>Created with Sketch.</desc>
    <defs></defs>
    <g id="Page-1" stroke="none" stroke-width="1" fill="none" fill-rule="evenodd">
        <g id="link" transform="translate(1.000000, 1.000000)">
            <g transform="translate(5.000000, 6.000000)" fill="#4CD566" fill-rule="nonzero" id="Group">
                <g transform="translate(0.777778, 0.777778)">
                    <path d="M7.21615556,10.7449333 L7.1266,10.7209556 L5.71335556,12.1344889 C5.25864444,12.5892 4.654,12.8393778 4.01093333,12.8393778 C3.36786667,12.8393778 2.76322222,12.5892 2.30851111,12.1344889 C1.36991111,11.1956 1.36991111,9.66824444 2.30851111,8.72964444 L4.23453333,6.80362222 C4.68924444,6.34891111 5.29388889,6.09873333 5.93695556,6.09873333 C6.38184444,6.09873333 6.81604444,6.22064444 7.19304444,6.45175556 C7.35424444,6.55055556 7.50417778,6.669 7.63908889,6.80362222 C7.774,6.93853333 7.89244444,7.08846667 7.99124444,7.24966667 L8.02273333,7.30137778 L8.0808,7.31928889 C8.21744444,7.36117778 8.36015556,7.38226667 8.5046,7.38226667 C8.89113333,7.38226667 9.25426667,7.23175556 9.52697778,6.95846667 L9.607,6.87815556 L9.55817778,6.77588889 C9.36173333,6.36508889 9.09768889,5.99242222 8.77384444,5.66857778 C8.45,5.34444444 8.07733333,5.08068889 7.66653333,4.88424444 C7.13122222,4.62857778 6.53322222,4.49337778 5.93666667,4.49337778 C4.95184444,4.49337778 4.00515556,4.85304444 3.27108889,5.50622222 C3.21273333,5.55822222 3.15553333,5.61253333 3.09948889,5.66857778 L1.17346667,7.5946 C-0.390866667,9.15893333 -0.390866667,11.7043333 1.17346667,13.2689556 C1.93208889,14.027 2.93973333,14.4444444 4.01151111,14.4444444 C5.083,14.4444444 6.09064444,14.027 6.84868889,13.2692444 L8.77471111,11.3435111 C8.83075556,11.2871778 8.88506667,11.2294 8.93706667,11.1713333 L9.19504444,10.8807111 L8.80735556,10.9044 C8.27637778,10.9358889 7.73153333,10.8827333 7.21615556,10.7449333 Z" id="Shape"></path>
                    <path d="M13.2680889,1.17491111 C12.5103333,0.417155556 11.5026889,0 10.4309111,0 C9.35913333,0 8.35177778,0.417155556 7.59373333,1.17491111 L5.668,3.10093333 C5.61195556,3.15697778 5.55793333,3.21446667 5.50564444,3.27311111 L5.24766667,3.56344444 L5.63535556,3.53975556 C6.16604444,3.50768889 6.71088889,3.56142222 7.22597778,3.69922222 L7.31553333,3.7232 L8.72848889,2.30995556 C9.18348889,1.85524444 9.78813333,1.60477778 10.4312,1.60477778 C11.0745556,1.60477778 11.6789111,1.85524444 12.1336222,2.30995556 C13.0722222,3.24855556 13.0722222,4.77591111 12.1336222,5.71451111 L10.2078889,7.64053333 C9.75317778,8.09495556 9.14853333,8.34542222 8.50546667,8.34542222 C8.06057778,8.34542222 7.62608889,8.22322222 7.24908889,7.99211111 C7.08846667,7.8936 6.93824444,7.77515556 6.80304444,7.64053333 C6.66813333,7.50504444 6.54968889,7.35511111 6.45117778,7.1942 L6.4194,7.1422 L6.36133333,7.12428889 C6.2244,7.08211111 6.08168889,7.06102222 5.93753333,7.06102222 C5.55128889,7.06102222 5.18815556,7.21153333 4.91515556,7.48511111 L4.83513333,7.56513333 L4.88395556,7.6674 C5.08011111,8.07762222 5.34386667,8.45028889 5.66828889,8.775 C5.993,9.09913333 6.36537778,9.36288889 6.7756,9.55904444 C7.31091111,9.815 7.90891111,9.9502 8.50546667,9.9502 C8.50575556,9.9502 8.50546667,9.9502 8.50575556,9.9502 C9.49028889,9.9502 10.4372667,9.59053333 11.1707556,8.93706667 C11.2294,8.88477778 11.2866,8.83104444 11.3429333,8.77471111 L13.2686667,6.84868889 C14.0267111,6.09064444 14.4438667,5.08328889 14.4438667,4.01151111 C14.4432889,2.9406 14.0261333,1.93295556 13.2680889,1.17491111 Z" id="Shape"></path>
                </g>
            </g>
            <path d="M13,26 C5.82029825,26 0,20.1797017 0,13 C0,5.82029825 5.82029825,0 13,0 C20.1797017,0 26,5.82029825 26,13 C26,20.1797017 20.1797017,26 13,26 Z" id="Path" stroke="#FFFFFF" stroke-width="1.5"></path>
        </g>
    </g>
</svg>