<?xml version="1.0" encoding="UTF-8"?>
<svg width="26px" height="26px" viewBox="0 0 26 26" version="1.1" xmlns="http://www.w3.org/2000/svg" xmlns:xlink="http://www.w3.org/1999/xlink">
    <!-- Generator: Sketch 50 (54983) - http://www.bohemiancoding.com/sketch -->
    <title>misc</title>
    <desc>Created with Sketch.</desc>
    <defs></defs>
    <g id="Page-1" stroke="none" stroke-width="1" fill="none" fill-rule="evenodd">
        <g id="misc">
            <path d="M13,26 C5.82029825,26 0,20.1797017 0,13 C0,5.82029825 5.82029825,0 13,0 C20.1797017,0 26,5.82029825 26,13 C26,20.1797017 20.1797017,26 13,26 Z M13,24.375 C19.2822386,24.375 24.375,19.282239 24.375,13 C24.375,6.71776097 19.2822386,1.625 13,1.625 C6.71776137,1.625 1.625,6.71776097 1.625,13 C1.625,19.282239 6.71776137,24.375 13,24.375 Z" id="Shape" fill="#FFFFFF"></path>
            <path d="M17.5,14 C16.6715732,14 16,13.3284271 16,12.5 C16,11.6715729 16.6715732,11 17.5,11 C18.3284268,11 19,11.6715729 19,12.5 C19,13.3284271 18.3284268,14 17.5,14 Z" id="Path" fill="#4CD566"></path>
            <path d="M18,14 C18.552285,14 19,13.5522847 19,13 C19,12.4477153 18.552285,12 18,12 C17.447715,12 17,12.4477153 17,13 C17,13.5522847 17.447715,14 18,14 Z" id="Path" fill="#4CD566"></path>
            <path d="M12.5,14 C11.6715732,14 11,13.3284271 11,12.5 C11,11.6715729 11.6715732,11 12.5,11 C13.3284268,11 14,11.6715729 14,12.5 C14,13.3284271 13.3284268,14 12.5,14 Z" id="Path" fill="#4CD566"></path>
            <path d="M13,14 C13.552285,14 14,13.5522847 14,13 C14,12.4477153 13.552285,12 13,12 C12.447715,12 12,12.4477153 12,13 C12,13.5522847 12.447715,14 13,14 Z" id="Path" fill="#4CD566"></path>
            <path d="M8.5,14 C7.67157325,14 7,13.3284271 7,12.5 C7,11.6715729 7.67157325,11 8.5,11 C9.32842675,11 10,11.6715729 10,12.5 C10,13.3284271 9.32842675,14 8.5,14 Z" id="Path" fill="#4CD566"></path>
            <path d="M8,14 C8.552285,14 9,13.5522847 9,13 C9,12.4477153 8.552285,12 8,12 C7.447715,12 7,12.4477153 7,13 C7,13.5522847 7.447715,14 8,14 Z" id="Path" fill="#4CD566"></path>
        </g>
    </g>
</svg>