<?xml version="1.0" encoding="UTF-8"?>
<svg width="25px" height="25px" viewBox="0 0 25 25" version="1.1" xmlns="http://www.w3.org/2000/svg" xmlns:xlink="http://www.w3.org/1999/xlink">
    <!-- Generator: Sketch 50 (54983) - http://www.bohemiancoding.com/sketch -->
    <title>Node</title>
    <desc>Created with Sketch.</desc>
    <defs></defs>
    <g id="Page-1" stroke="none" stroke-width="1" fill="none" fill-rule="evenodd">
        <g id="Node" transform="translate(1.000000, 1.000000)" fill-rule="nonzero">
            <path d="M5,4 L5,1.25 C5,0.625 4.5,0.125 3.875,0.125 L1.125,0.125 C0.5,0.125 0,0.625 0,1.25 L0,4 C0,4.625 0.5,5.125 1.125,5.125 L3.875,5.125 C4.5,5.125 5,4.625 5,4 Z M0.75,4 L0.75,1.25 C0.75,1.05 0.925,0.875 1.125,0.875 L3.875,0.875 C4.075,0.875 4.25,1.05 4.25,1.25 L4.25,4 C4.25,4.2 4.075,4.375 3.875,4.375 L1.125,4.375 C0.925,4.375 0.75,4.2 0.75,4 Z" id="Shape" stroke="#FFFFFF" stroke-width="0.5" fill="#FFFFFF"></path>
            <path d="M21.7,0.125 L18.95,0.125 C18.325,0.125 17.825,0.625 17.825,1.25 L17.825,4 C17.825,4.625 18.325,5.125 18.95,5.125 L21.7,5.125 C22.325,5.125 22.825,4.625 22.825,4 L22.825,1.25 C22.825,0.625 22.3,0.125 21.7,0.125 Z M22.075,4 C22.075,4.2 21.9,4.375 21.7,4.375 L18.95,4.375 C18.75,4.375 18.575,4.2 18.575,4 L18.575,1.25 C18.575,1.05 18.75,0.875 18.95,0.875 L21.7,0.875 C21.9,0.875 22.075,1.05 22.075,1.25 L22.075,4 Z" id="Shape" stroke="#FFFFFF" stroke-width="0.5" fill="#FFFFFF"></path>
            <path d="M12.625,9.425 L9.875,9.425 C9.25,9.425 8.75,9.925 8.75,10.55 L8.75,13.675 L8.75,14.425 L8.75,17.925 L8.75,18.675 L8.75,21.8 C8.75,22.425 9.25,22.925 9.875,22.925 L12.6,22.925 C13.225,22.925 13.725,22.425 13.725,21.8 L13.725,18.675 L13.725,17.925 L13.725,14.425 L13.725,13.675 L13.725,10.575 C13.75,9.95 13.25,9.425 12.625,9.425 Z M13,21.8 C13,22.025 12.825,22.175 12.625,22.175 L9.875,22.175 C9.65,22.175 9.5,22 9.5,21.8 L9.5,18.675 L13,18.675 L13,21.8 Z M13,17.925 L9.5,17.925 L9.5,14.425 L13,14.425 L13,17.925 Z M9.5,13.675 L9.5,10.575 C9.5,10.35 9.675,10.2 9.875,10.2 L12.6,10.2 C12.825,10.2 12.975,10.375 12.975,10.575 L12.975,13.7 L9.5,13.7 L9.5,13.675 Z" id="Shape" stroke="#FFFFFF" stroke-width="0.5" fill="#FFFFFF"></path>
            <path d="M5.3,11.45 C3.05,11.15 2.875,10.225 2.875,6.225 L2.125,6.225 C2.125,10.1 2.25,11.8 5.275,12.2 L5.225,13.325 L7.875,11.95 L5.35,10.35 L5.3,11.45 Z" id="Shape" fill="#4CD566"></path>
            <path d="M20.3,6.2 L18.725,8.75 L19.85,8.775 C19.65,11.175 18.85,11.55 14.925,11.55 L14.925,12.3 C19,12.3 20.325,11.825 20.6,8.8 L21.7,8.825 L20.3,6.2 Z" id="Shape" fill="#4CD566"></path>
        </g>
    </g>
</svg>