<?xml version="1.0" encoding="UTF-8"?>
<svg width="20px" height="20px" viewBox="0 0 20 20" version="1.1" xmlns="http://www.w3.org/2000/svg" xmlns:xlink="http://www.w3.org/1999/xlink">
    <!-- Generator: Sketch 50 (54983) - http://www.bohemiancoding.com/sketch -->
    <title>Peer</title>
    <desc>Created with Sketch.</desc>
    <defs></defs>
    <g id="Page-1" stroke="none" stroke-width="1" fill="none" fill-rule="evenodd">
        <g id="Peer" fill-rule="nonzero">
            <path d="M19.2968205,4.7905641 L15.6428718,0.527589744 C15.4116923,0.257846154 15.0740513,0.102358974 14.718359,0.102358974 L6.19241026,0.102358974 C5.18502564,0.102358974 4.36533333,0.921846154 4.36533333,1.92923077 L1.92964103,1.92923077 C0.92225641,1.92923077 0.102564103,2.74851282 0.102564103,3.75610256 L0.102564103,17.7628718 C0.102564103,18.7702564 0.92225641,19.5897436 1.92964103,19.5897436 L14.1091282,19.5897436 C14.7819487,19.5897436 15.3271795,19.0436923 15.3271795,18.3716923 L15.3271795,17.7626667 L18.3723077,17.7626667 C19.0449231,17.7626667 19.5901538,17.2168205 19.5901538,16.5446154 L19.5901538,15.9351795 L19.5901538,5.58317949 C19.5897436,5.29230769 19.4857436,5.01128205 19.2968205,4.7905641 Z M14.1089231,16.5450256 L14.1089231,17.1540513 L14.1089231,17.7630769 C14.1089231,18.0996923 14.1089231,18.3721026 14.1089231,18.3721026 L1.92964103,18.3721026 C1.59323077,18.3721026 1.32061538,18.0996923 1.32061538,17.7630769 L1.32061538,3.75630769 C1.32061538,3.41969231 1.59323077,3.14707692 1.92964103,3.14707692 L4.36533333,3.14707692 L4.9745641,3.14707692 L5.58379487,3.14707692 L10.4551795,3.14707692 C10.4551795,3.82605128 10.4551795,4.90276923 10.4551795,5.48328205 C10.4551795,6.37169231 10.9911795,7.41025641 12.2822564,7.41025641 C12.9942564,7.41025641 13.6537436,7.41025641 14.1091282,7.41025641 L14.1091282,16.5450256 L14.1089231,16.5450256 Z M18.3718974,15.9357949 C18.3718974,16.2724103 18.3718974,16.5452308 18.3718974,16.5452308 L15.3269744,16.5452308 L15.3269744,7.41005128 C15.3269744,7.11897436 15.2231795,6.83794872 15.0340513,6.6174359 L11.3798974,2.35446154 C11.1491282,2.08492308 10.8106667,1.9294359 10.4551795,1.9294359 L5.58379487,1.9294359 C5.58379487,1.59241026 5.856,1.32041026 6.19241026,1.32041026 L14.718359,1.32041026 C14.718359,1.99876923 14.718359,3.07589744 14.718359,3.65620513 C14.718359,4.54461538 15.2539487,5.58338462 16.5450256,5.58338462 C17.2570256,5.58338462 17.9165128,5.58338462 18.3721026,5.58338462 L18.3721026,15.9357949 L18.3718974,15.9357949 Z" id="Shape" fill="#FFFFFF"></path>
            <path d="M9.68841026,13.5173333 L5.07938462,13.5173333 L6.58830769,12.0084103 C6.82871795,11.7682051 6.82871795,11.3786667 6.58830769,11.1382564 C6.34810256,10.8980513 5.95835897,10.8978462 5.71794872,11.1382564 L3.15917949,13.6970256 C3.13066667,13.7255385 3.10482051,13.7569231 3.08225641,13.7905641 C3.07630769,13.7993846 3.07261538,13.8094359 3.06707692,13.8184615 C3.05210256,13.8436923 3.03712821,13.8687179 3.02564103,13.896 C3.02010256,13.9095385 3.01723077,13.9241026 3.01271795,13.9378462 C3.00451282,13.9618462 2.99548718,13.985641 2.9905641,14.0108718 C2.98235897,14.0506667 2.97825641,14.0914872 2.97825641,14.1327179 C2.97825641,14.1739487 2.9825641,14.2145641 2.9905641,14.2545641 C2.99548718,14.2793846 3.00451282,14.3027692 3.01230769,14.3265641 C3.01702564,14.3407179 3.01989744,14.3558974 3.02564103,14.369641 C3.03630769,14.3952821 3.05066667,14.4188718 3.06461538,14.4424615 C3.07097436,14.4533333 3.07548718,14.4648205 3.08225641,14.4750769 C3.10461538,14.5083077 3.12984615,14.5392821 3.15815385,14.5675897 C3.15815385,14.5677949 3.15815385,14.5677949 3.15815385,14.5677949 C3.15815385,14.5677949 3.15815385,14.5677949 3.15815385,14.568 L5.71774359,17.1275897 C5.83794872,17.2477949 5.99548718,17.3078974 6.15302564,17.3078974 C6.3105641,17.3078974 6.46810256,17.2477949 6.58810256,17.1275897 C6.82851282,16.8873846 6.82851282,16.4978462 6.58810256,16.2574359 L5.07897436,14.7483077 L9.688,14.7483077 C10.0278974,14.7483077 10.3033846,14.4728205 10.3033846,14.1329231 C10.3033846,13.7930256 10.0283077,13.5173333 9.68841026,13.5173333 Z" id="Shape" fill="#4CD566"></path>
            <path d="M11.0717949,9.50625641 C11.065641,9.48471795 11.0605128,9.4625641 11.0516923,9.44164103 C11.0434872,9.42174359 11.032,9.40389744 11.0219487,9.38523077 C11.0131282,9.36882051 11.0057436,9.35179487 10.9950769,9.336 C10.9727179,9.30235897 10.9470769,9.27097436 10.9185641,9.24225641 C10.9185641,9.24225641 10.9185641,9.24225641 10.9185641,9.24225641 L10.9185641,9.24205128 L8.35897436,6.68225641 C8.11876923,6.44205128 7.72902564,6.44184615 7.48861538,6.68225641 C7.24820513,6.92246154 7.24820513,7.312 7.48861538,7.55241026 L8.99774359,9.06153846 L4.38871795,9.06153846 C4.04882051,9.06153846 3.77333333,9.33702564 3.77333333,9.67692308 C3.77333333,10.0168205 4.04882051,10.2923077 4.38871795,10.2923077 L8.99774359,10.2923077 L7.48861538,11.8014359 C7.24841026,12.0418462 7.24841026,12.4313846 7.48861538,12.6715897 C7.60861538,12.7917949 7.76635897,12.8518974 7.92369231,12.8518974 C8.08102564,12.8518974 8.23876923,12.7917949 8.35897436,12.6715897 L10.9185641,10.112 L10.9185641,10.1117949 C10.9185641,10.1117949 10.9185641,10.1117949 10.9185641,10.1117949 C10.9470769,10.0830769 10.9725128,10.0516923 10.9950769,10.0180513 C11.0055385,10.0024615 11.0129231,9.9854359 11.0217436,9.96902564 C11.032,9.95015385 11.0432821,9.93210256 11.0516923,9.91241026 C11.0603077,9.89128205 11.0654359,9.86933333 11.0717949,9.84779487 C11.0767179,9.83097436 11.0832821,9.81497436 11.0865641,9.79753846 C11.1025641,9.71794872 11.1025641,9.63589744 11.0865641,9.55630769 C11.0830769,9.53907692 11.0767179,9.52307692 11.0717949,9.50625641 Z" id="Shape" fill="#4CD566"></path>
        </g>
    </g>
</svg>