<?xml version="1.0" encoding="UTF-8"?>
<svg width="28px" height="29px" viewBox="0 0 28 29" version="1.1" xmlns="http://www.w3.org/2000/svg" xmlns:xlink="http://www.w3.org/1999/xlink">
    <!-- Generator: Sketch 50 (54983) - http://www.bohemiancoding.com/sketch -->
    <title>pesquisas</title>
    <desc>Created with Sketch.</desc>
    <defs></defs>
    <g id="Page-1" stroke="none" stroke-width="1" fill="none" fill-rule="evenodd">
        <g id="pesquisas" fill="#FFFFFF" fill-rule="nonzero">
            <path d="M10.6,21.1458333 C4.92,21.1458333 0.28,16.4736111 0.28,10.7541667 C0.28,5.03472222 4.92,0.3625 10.6,0.3625 C16.28,0.3625 20.92,5.03472222 20.92,10.7541667 C20.88,16.5138889 16.28,21.1458333 10.6,21.1458333 Z M10.6,1.93333333 C5.76,1.93333333 1.84,5.88055556 1.84,10.7541667 C1.84,15.6277778 5.76,19.575 10.6,19.575 C15.44,19.575 19.36,15.6277778 19.36,10.7541667 C19.36,5.88055556 15.4,1.93333333 10.6,1.93333333 Z" id="Shape"></path>
            <path d="M20.12,21.6694444 C19.92,21.6694444 19.72,21.5888889 19.56,21.4277778 L16.52,18.3666667 C16.2,18.0444444 16.2,17.5611111 16.52,17.2791667 C16.84,16.9569444 17.32,16.9569444 17.6,17.2791667 L20.64,20.3402778 C20.96,20.6625 20.96,21.1458333 20.64,21.4277778 C20.52,21.5888889 20.32,21.6694444 20.12,21.6694444 Z" id="Shape"></path>
            <path d="M24.88,28.6375 C24.36,28.6375 23.84,28.4361111 23.4,28.0333333 L19.12,23.7236111 C18.32,22.9180556 18.32,21.5888889 19.12,20.7833333 L19.92,19.9777778 C20.32,19.575 20.84,19.3736111 21.4,19.3736111 C21.96,19.3736111 22.48,19.575 22.88,19.9777778 L27.16,24.2875 C27.56,24.6902778 27.76,25.2138889 27.76,25.7777778 C27.76,26.3416667 27.56,26.8652778 27.16,27.2680556 L26.36,28.0736111 C25.92,28.3958333 25.4,28.6375 24.88,28.6375 Z M21.4,20.9041667 C21.28,20.9041667 21.12,20.9444444 21.04,21.0652778 L20.24,21.8708333 C20.04,22.0722222 20.04,22.3944444 20.24,22.5958333 L24.52,26.9055556 C24.72,27.1069444 25.04,27.1069444 25.24,26.9055556 L26.04,26.1 C26.12,26.0194444 26.2,25.8583333 26.2,25.7375 C26.2,25.6166667 26.16,25.4555556 26.04,25.375 L21.76,21.0652778 C21.68,20.9444444 21.52,20.9041667 21.4,20.9041667 Z" id="Shape"></path>
        </g>
    </g>
</svg>