<?xml version="1.0" encoding="UTF-8"?>
<svg width="21px" height="20px" viewBox="0 0 21 20" version="1.1" xmlns="http://www.w3.org/2000/svg" xmlns:xlink="http://www.w3.org/1999/xlink">
    <!-- Generator: Sketch 50 (54983) - http://www.bohemiancoding.com/sketch -->
    <title>wallet</title>
    <desc>Created with Sketch.</desc>
    <defs></defs>
    <g id="Page-1" stroke="none" stroke-width="1" fill="none" fill-rule="evenodd">
        <g id="wallet" fill-rule="nonzero">
            <ellipse id="Oval" fill="#FFFFFF" cx="15.3050847" cy="12.5" rx="1" ry="1"></ellipse>
            <path d="M9.15087605,0.161752479 C8.92558851,-0.0539174932 8.57214023,-0.0539174932 8.34685269,0.161752479 L6.1119403,2.4163589 L1.90558079,2.4163589 C0.853676415,2.41762017 0.00125152349,3.27668358 0,4.33678 L0,8.57131996 C0,8.8873567 0.254218588,9.1435551 0.567813108,9.1435551 C0.881407629,9.1435551 1.13562622,8.8873567 1.13562622,8.57131996 L1.13562622,6.09239738 C1.37797492,6.20112394 1.64030291,6.25727352 1.90558079,6.25720109 L16.9935107,6.25720109 C17.4312887,6.25720109 17.7861778,6.61485405 17.7861778,7.05604134 L17.7861778,9.72265705 L14.8335496,9.72265705 C14.059219,9.72584384 13.3201764,10.0494172 12.7894225,10.6176328 C12.247571,11.1859806 11.9673931,11.9574876 12.0171966,12.7440585 C12.1388865,14.25315 13.3994445,15.4094913 14.9016872,15.3900738 L17.7861778,15.3900738 L17.7861778,18.038378 C17.7861778,18.4896784 17.4231537,18.8555297 16.9753407,18.8555297 L11.3358209,18.8555297 C11.0222264,18.8555297 10.7680078,19.1117281 10.7680078,19.4277649 C10.7680078,19.7438016 11.0222264,20 11.3358209,20 L16.9685269,20 C18.0430101,19.9987387 18.9137387,19.121229 18.9149903,18.038378 L18.9149903,15.3900738 L19.7099286,15.3900738 C20.4218969,15.3888139 20.9987498,14.8074685 21,14.0899556 L21,11.0227753 C20.9987709,10.3079288 20.4260483,9.72768126 19.7167424,9.72265705 L18.921804,9.72265705 L18.921804,7.05604134 C18.915564,5.98688073 18.0544269,5.12312596 16.9935107,5.12188659 L16.9367294,5.12188659 L16.9367294,4.1673984 C16.9354762,3.19995584 16.1569174,2.41635807 15.19695,2.4163589 L11.3880597,2.4163589 L9.15087605,0.161752479 Z M19.7167424,10.8671273 C19.8020401,10.8671273 19.8711875,10.9368133 19.8711875,11.0227753 L19.8711875,14.0899556 C19.8711875,14.1759176 19.8020401,14.2456035 19.7167424,14.2456035 L14.9016872,14.2456035 C14.0004131,14.2651902 13.2371646,13.5799096 13.1528228,12.6753903 C13.1220329,12.209076 13.2843123,11.7507437 13.6010637,11.4094058 C13.9178151,11.0680678 14.3607306,10.8742294 14.8244646,10.8739941 L19.7167424,10.8671273 Z M3.43640493,5.12188659 L1.90558079,5.12188659 C1.48034662,5.12188659 1.13562622,4.77448157 1.13562622,4.34593576 C1.13562622,3.91738994 1.48034662,3.56998492 1.90558079,3.56998492 L4.97631408,3.56998492 L3.43640493,5.12188659 Z M15.19695,3.56082916 C15.5293602,3.56082916 15.7988319,3.83239946 15.7988319,4.1673984 L15.7988319,5.12188659 L14.0613238,5.12188659 L12.5214147,3.56998492 L15.19695,3.56082916 Z M5.0421804,5.12188659 L8.74886437,1.3771799 L12.4578196,5.12188659 L5.0421804,5.12188659 Z" id="Shape" fill="#FFFFFF"></path>
            <path d="M0.582858412,16.8839676 C1.97552536,16.8852573 3.10418428,18.0177552 3.10546962,19.4151591 C3.10546962,19.7381578 3.36642422,20 3.68832803,20 C4.01023184,20 4.27118644,19.7381578 4.27118644,19.4151591 C4.26861743,17.3722919 2.61880066,15.7168635 0.582858412,15.7142857 C0.2609546,15.7142857 0,15.9761279 0,16.2991266 C0,16.6221254 0.2609546,16.8839676 0.582858412,16.8839676 Z" id="Shape" fill="#4CD566"></path>
            <path d="M0.568486202,13.9979825 C3.36049079,14.0004985 5.62323204,16.2709361 5.62573946,19.0724373 C5.62573946,19.3874715 5.8802594,19.6428571 6.19422566,19.6428571 C6.50819192,19.6428571 6.76271186,19.3874715 6.76271186,19.0724373 C6.75895219,15.6413888 3.98790406,12.8609153 0.568486202,12.8571429 C0.254519942,12.8571429 0,13.1125285 0,13.4275627 C0,13.7425969 0.254519942,13.9979825 0.568486202,13.9979825 Z" id="Shape" fill="#4CD566"></path>
            <path d="M0.562089242,11.8425621 C4.73934527,11.8462924 8.12510082,15.2433802 8.1300588,19.4358619 C8.13005882,19.7474268 8.38171474,20 8.69214805,20 C9.00258135,20 9.25423728,19.7474268 9.25423729,19.4358619 C9.24804138,14.6207657 5.35969863,10.7192585 0.562089242,10.7142857 C0.251655926,10.7142857 0,10.966859 0,11.2784239 C0,11.5899888 0.251655926,11.8425621 0.562089242,11.8425621 Z" id="Shape" fill="#4CD566"></path>
        </g>
    </g>
</svg>